HIERARCHY
ROOT Model_Hips
{
	OFFSET 0.000000 96.915077 0.000000
	CHANNELS 6 Xposition Yposition Zposition Xrotation Yrotation Zrotation
	JOINT Model_Spine
	{
		OFFSET 0.000000 11.137703 -1.289900
		CHANNELS 3 Xrotation Yrotation Zrotation
		JOINT Model_Spine1
		{
			OFFSET 0.000000 12.993942 -1.504922
			CHANNELS 3 Xrotation Yrotation Zrotation
			JOINT Model_Spine2
			{
				OFFSET 0.000000 14.850220 -1.719911
				CHANNELS 3 Xrotation Yrotation Zrotation
				JOINT Model_Neck
				{
					OFFSET 0.000000 16.706543 -1.934903
					CHANNELS 3 Xrotation Yrotation Zrotation
					JOINT Model_Head
					{
						OFFSET 0.000000 10.471298 2.002100
						CHANNELS 3 Xrotation Yrotation Zrotation
						JOINT Model_HeadTop_End
						{
							OFFSET 0.000000 20.842606 3.985100
							CHANNELS 3 Xrotation Yrotation Zrotation
							End Site
							{
								OFFSET 0.000000 21.220154 0.000000
							}
						}
					}
				}
				JOINT Model_LeftShoulder
				{
					OFFSET 7.008500 14.768600 -1.919946
					CHANNELS 3 Xrotation Yrotation Zrotation
					JOINT Model_LeftArm
					{
						OFFSET 14.126271 -3.718048 0.029937
						CHANNELS 3 Xrotation Yrotation Zrotation
						JOINT Model_LeftForeArm
						{
							OFFSET 28.282801 0.000000 0.000000
							CHANNELS 3 Xrotation Yrotation Zrotation
							JOINT Model_LeftHand
							{
								OFFSET 26.204689 0.000000 0.000000
								CHANNELS 3 Xrotation Yrotation Zrotation
								End Site
								{
									OFFSET 26.204704 0.000000 0.000000
								}
							}
						}
					}
				}
				JOINT Model_RightShoulder
				{
					OFFSET -7.008500 14.768555 -1.949840
					CHANNELS 3 Xrotation Yrotation Zrotation
					JOINT Model_RightArm
					{
						OFFSET -14.126281 -3.718018 -0.029932
						CHANNELS 3 Xrotation Yrotation Zrotation
						JOINT Model_RightForeArm
						{
							OFFSET -28.283798 0.000000 -0.000001
							CHANNELS 3 Xrotation Yrotation Zrotation
							JOINT Model_RightHand
							{
								OFFSET -26.204193 0.000000 -0.000001
								CHANNELS 3 Xrotation Yrotation Zrotation
								End Site
								{
									OFFSET -26.204208 0.000000 -0.000001
								}
							}
						}
					}
				}
			}
		}
	}
	JOINT Model_LeftUpLeg
	{
		OFFSET 8.327700 -6.193199 -0.402800
		CHANNELS 3 Xrotation Yrotation Zrotation
		JOINT Model_LeftLeg
		{
			OFFSET 0.735802 -42.108742 -0.610721
			CHANNELS 3 Xrotation Yrotation Zrotation
			JOINT Model_LeftFoot
			{
				OFFSET -0.735806 -36.833748 -0.172876
				CHANNELS 3 Xrotation Yrotation Zrotation
				JOINT Model_LeftToeBase
				{
					OFFSET -0.565857 -11.977769 16.297714
					CHANNELS 3 Xrotation Yrotation Zrotation
					JOINT Model_LeftToe_End
					{
						OFFSET -0.111712 -0.312793 7.857784
						CHANNELS 3 Xrotation Yrotation Zrotation
						End Site
						{
							OFFSET -0.111712 -0.312793 7.857784
						}
					}
				}
			}
		}
	}
	JOINT Model_RightUpLeg
	{
		OFFSET -8.327700 -6.193199 -0.516500
		CHANNELS 3 Xrotation Yrotation Zrotation
		JOINT Model_RightLeg
		{
			OFFSET -0.735785 -42.108738 -0.434061
			CHANNELS 3 Xrotation Yrotation Zrotation
			JOINT Model_RightFoot
			{
				OFFSET 0.735776 -36.833748 -0.021630
				CHANNELS 3 Xrotation Yrotation Zrotation
				JOINT Model_RightToeBase
				{
					OFFSET 0.565817 -11.977745 15.903093
					CHANNELS 3 Xrotation Yrotation Zrotation
					JOINT Model_RightToe_End
					{
						OFFSET 0.111702 -0.312791 7.811342
						CHANNELS 3 Xrotation Yrotation Zrotation
						End Site
						{
							OFFSET 0.111702 -0.312791 7.811342
						}
					}
				}
			}
		}
	}
}
MOTION
Frames: 6
Frame Time: 0.016667
-3.846445 94.295311 51.587704 -2.699264 1.342101 -5.822933 3.650445 -0.764721 2.353231 7.319182 -1.404444 3.849326 7.319184 -1.404444 3.849327 -6.292847 0.041586 0.029839 -6.292849 0.041586 0.029835 0.000000 0.000000 0.000000 12.575035 6.860938 -4.968512 1.585764 -40.413324 -60.307422 -0.094949 -38.163795 -0.001979 -0.000002 0.000000 -0.000000 11.528391 8.486204 -1.626407 2.195772 2.678617 69.035898 -0.089964 30.173344 0.012493 0.000001 -0.000000 -0.000001 -19.458079 1.155818 13.221681 68.630881 -3.850089 -2.585081 16.500374 -6.452477 -4.235969 -38.206463 -7.661953 9.810557 -0.000002 0.000000 -0.000000 -16.032455 -4.174641 6.771284 30.387030 -1.880256 1.118348 -11.442074 -1.021899 -2.601295 -1.726303 -0.176305 0.436669 0.000000 0.000000 0.000000 
-4.010590 94.502831 52.854916 -3.188138 1.251601 -5.527961 3.662875 -0.617368 2.278927 7.340690 -1.105911 3.725296 7.340689 -1.105912 3.725298 -6.147713 0.020364 -0.005086 -6.147708 0.020362 -0.005085 0.000000 0.000000 -0.000000 12.587870 6.893930 -5.196700 2.527246 -39.487769 -60.434402 -0.098058 -37.485564 -0.001588 0.000003 0.000001 -0.000000 11.438601 9.063191 -1.627573 1.560669 2.702957 68.641939 -0.096270 31.751135 0.012479 0.000003 -0.000001 0.000000 -20.615345 0.930566 12.741887 68.878018 -3.992374 -2.596836 13.778027 -6.362162 -4.137371 -35.660841 -6.818465 9.636440 0.000001 -0.000000 -0.000000 -14.350842 -4.248243 6.615833 29.976256 -1.807591 1.098280 -12.211402 -0.705899 -2.696145 -1.623784 -0.176954 0.437267 0.000000 -0.000001 0.000000 
-4.152211 94.715912 54.103561 -3.623552 1.089047 -5.166127 3.666420 -0.459346 2.168424 7.344439 -0.792998 3.562254 7.344442 -0.792999 3.562252 -6.010977 0.000343 -0.036038 -6.010982 0.000343 -0.036043 0.000000 0.000000 0.000000 12.603187 6.979777 -5.373915 3.465159 -38.582366 -60.534341 -0.101132 -36.792067 -0.001445 -0.000001 -0.000001 0.000001 11.347737 9.649427 -1.605904 0.793915 2.735584 68.237585 -0.101979 33.481796 0.012375 0.000001 -0.000000 -0.000000 -21.564290 0.848789 12.119010 68.376880 -4.090992 -2.585720 11.211502 -5.468646 -4.323046 -34.145926 -5.514724 8.547388 0.000001 -0.000000 -0.000000 -12.702163 -4.304366 6.367067 29.449993 -1.718205 1.071931 -12.889158 -0.352363 -2.762649 -1.515065 -0.177646 0.437903 0.000000 0.000000 -0.000000 
-4.266015 94.948677 55.333042 -4.023767 0.866610 -4.762343 3.669753 -0.291817 2.029938 7.347652 -0.464569 3.368129 7.347651 -0.464570 3.368130 -5.888835 -0.019896 -0.059020 -5.888824 -0.019895 -0.059024 0.000000 0.000000 0.000000 12.620341 7.112536 -5.481543 4.395463 -37.698987 -60.609999 -0.104627 -36.082779 -0.001476 -0.000003 0.000001 -0.000001 11.258885 10.228103 -1.528381 0.037531 2.777120 67.831777 -0.107199 35.345471 0.012088 0.000001 -0.000001 0.000001 -22.241826 0.862633 11.341750 67.064678 -4.128561 -2.549126 9.106630 -3.721448 -4.669502 -33.531704 -4.097862 6.897939 0.000001 -0.000000 -0.000000 -11.018175 -4.365487 6.042155 28.712609 -1.618635 1.033911 -13.427116 0.051031 -2.793413 -1.415940 -0.178270 0.438483 0.000000 -0.000000 -0.000000 
-4.357736 95.190659 56.545132 -4.380635 0.612702 -4.326251 3.673013 -0.119008 1.868538 7.350609 -0.126948 3.147881 7.350611 -0.126948 3.147882 -5.781414 -0.040898 -0.076589 -5.781431 -0.040898 -0.076591 0.000000 0.000000 -0.000000 12.637832 7.271089 -5.546021 5.315893 -36.838250 -60.662605 -0.108372 -35.360388 -0.001678 -0.000002 0.000001 -0.000001 11.173306 10.783716 -1.430625 -0.811118 2.827546 67.419124 -0.111931 37.325020 0.011737 0.000003 0.000002 -0.000002 -22.687983 0.958590 10.479633 65.054512 -4.118498 -2.490207 7.195629 -1.452921 -5.155064 -32.805088 -2.903848 5.361810 0.000000 0.000000 0.000000 -9.330817 -4.377915 5.673895 27.805509 -1.512536 0.986706 -13.850875 0.413752 -2.791169 -1.336313 -0.178771 0.438950 0.000000 0.000000 0.000000 
-4.430107 95.445480 57.742111 -4.698404 0.356744 -3.868728 3.679669 0.056483 1.690190 7.360261 0.216866 2.904844 7.360264 0.216866 2.904845 -5.690850 -0.064192 -0.088482 -5.690851 -0.064192 -0.088483 -0.000000 -0.000000 -0.000000 12.654450 7.434278 -5.579184 6.223635 -36.001364 -60.693710 -0.112530 -34.626395 -0.002043 0.000002 0.000001 -0.000001 11.093638 11.294474 -1.326868 -1.726975 2.887243 67.001635 -0.116221 39.402149 0.011408 0.000002 0.000001 -0.000000 -22.895733 1.105751 9.586484 62.403135 -4.071676 -2.410158 5.294970 1.083080 -5.835447 -31.149406 -2.075419 4.331248 0.000001 -0.000000 -0.000000 -7.618146 -4.268613 5.292227 26.682937 -1.401079 0.928508 -14.140906 0.633333 -2.758639 -1.292111 -0.179053 0.439209 0.000000 0.000000 0.000000 
